<svg width="48" height="48" viewBox="0 0 48 48" fill="none" xmlns="http://www.w3.org/2000/svg">
<path d="M37 11.5C38.9202 11.5 40.7626 12.513 42.1729 14.3555C43.5842 16.1995 44.5 18.8128 44.5 21.7598C44.5 24.7066 43.5841 27.3191 42.1729 29.1631C40.7626 31.0057 38.9203 32.0195 37 32.0195C35.0797 32.0195 33.2374 31.0057 31.8271 29.1631C30.4159 27.3191 29.5 24.7066 29.5 21.7598C29.5 18.8128 30.4158 16.1995 31.8271 14.3555C33.2374 12.513 35.0798 11.5 37 11.5Z" stroke="#CC2222" stroke-width="3" stroke-linecap="round"/>
<path d="M36.667 38.4705V20.5217" stroke="#CC2222" stroke-width="3" stroke-linecap="round"/>
<path d="M37.333 26.0921L39.6663 24.5448M36.333 23.9259L33.333 21.7596" stroke="#CC2222" stroke-width="3" stroke-linecap="round"/>
<path d="M16.1768 25.875L16.1768 39" stroke="#CC2222" stroke-width="3" stroke-linecap="round"/>
<path fill-rule="evenodd" clip-rule="evenodd" d="M26.039 23.0625C26.039 21.0861 24.7523 19.3955 22.9319 18.7061C23.2404 17.9223 23.4091 17.0737 23.4091 16.1875C23.4091 12.218 20.024 9 15.8482 9C11.6725 9 8.28734 12.218 8.28734 16.1875C8.28734 16.2786 8.2891 16.3692 8.29264 16.4594C8.29581 16.5402 8.30038 16.6207 8.30632 16.7008C6.33071 17.7788 5 19.8042 5 22.125C5 25.5768 7.9436 28.375 11.5747 28.375C13.8273 28.375 14.1606 25.4202 15.8482 25.25C17.5358 25.0798 19.0649 27.75 20.7792 27.75C23.5026 27.75 26.039 25.6513 26.039 23.0625Z" stroke="#CC2222" stroke-width="3" stroke-linecap="round"/>
</svg>
