<svg width="36" height="36" viewBox="0 0 36 36" fill="none" xmlns="http://www.w3.org/2000/svg">
<path d="M16.8452 24C16.9622 24.2027 17.1306 24.371 17.3332 24.488C17.5359 24.605 17.7658 24.6666 17.9999 24.6666C18.2339 24.6666 18.4638 24.605 18.6665 24.488C18.8692 24.371 19.0375 24.2027 19.1545 24" stroke="#4A5565" stroke-width="1.33333" stroke-linecap="round" stroke-linejoin="round"/>
<path d="M12.1747 20.2173C12.0876 20.3128 12.0301 20.4315 12.0092 20.559C11.9884 20.6865 12.005 20.8173 12.0571 20.9356C12.1093 21.0538 12.1946 21.1544 12.3028 21.225C12.4111 21.2956 12.5375 21.3332 12.6667 21.3333H23.3333C23.4625 21.3334 23.589 21.2959 23.6972 21.2254C23.8055 21.1549 23.891 21.0545 23.9433 20.9363C23.9955 20.8182 24.0123 20.6874 23.9916 20.5598C23.9709 20.4323 23.9136 20.3135 23.8267 20.218C22.94 19.304 22 18.3326 22 15.3333C22 14.2724 21.5786 13.255 20.8284 12.5049C20.0783 11.7547 19.0609 11.3333 18 11.3333C16.9391 11.3333 15.9217 11.7547 15.1716 12.5049C14.4214 13.255 14 14.2724 14 15.3333C14 18.3326 13.0593 19.304 12.1747 20.2173Z" stroke="#4A5565" stroke-width="1.33333" stroke-linecap="round" stroke-linejoin="round"/>
<rect x="24" y="4" width="8" height="8" rx="4" fill="#E63027"/>
</svg>
